<?xml version="1.0" standalone="no"?>
<!DOCTYPE svg PUBLIC "-//W3C//DTD SVG 20010904//EN"
 "http://www.w3.org/TR/2001/REC-SVG-20010904/DTD/svg10.dtd">
<svg version="1.0" xmlns="http://www.w3.org/2000/svg"
 width="640.000000pt" height="640.000000pt" viewBox="0 0 640.000000 640.000000"
 preserveAspectRatio="xMidYMid meet">

<g transform="translate(0.000000,640.000000) scale(0.100000,-0.100000)"
fill="#000000" stroke="none">
<path d="M725 5231 c-93 -24 -163 -81 -206 -167 l-24 -49 -3 -1627 -2 -1628
-183 0 c-165 0 -185 -2 -215 -20 -54 -33 -67 -78 -53 -185 36 -300 223 -529
516 -632 l80 -28 2525 -3 c2738 -3 2594 -5 2733 49 123 48 259 156 340 271
102 143 161 395 113 485 -29 57 -54 63 -255 63 l-181 0 -2 1623 -3 1622 -26
56 c-31 65 -74 110 -144 147 l-50 27 -2465 2 c-1356 0 -2478 -2 -2495 -6z
m4908 -253 c16 -12 17 -120 17 -1583 0 -863 0 -1585 0 -1602 l0 -33 -2455 0
-2455 0 0 1599 0 1600 22 15 c20 14 268 16 2438 16 1917 0 2420 -3 2433 -12z
m453 -3506 c-57 -160 -199 -285 -364 -321 -74 -15 -4967 -16 -5044 0 -165 34
-323 176 -372 337 l-7 22 2900 0 2900 0 -13 -38z"/>
<path d="M1142 4576 l-37 -34 0 -1227 0 -1227 37 -34 38 -34 2012 0 c1578 0
2018 3 2037 13 13 6 34 25 45 40 l21 28 3 1192 c2 821 0 1203 -8 1229 -6 20
-24 48 -41 62 l-31 26 -2019 0 -2019 0 -38 -34z m3906 -1258 l-3 -1043 -1847
-3 -1848 -2 0 1045 0 1045 1850 0 1850 0 -2 -1042z"/>
<path d="M2148 4120 c-29 -32 -38 -49 -38 -76 0 -58 25 -90 113 -147 45 -30
183 -121 307 -202 124 -81 270 -177 325 -213 207 -135 335 -219 515 -337 102
-67 253 -166 335 -220 83 -53 231 -151 330 -216 99 -64 192 -121 207 -124 35
-9 89 9 117 39 13 14 25 43 28 66 9 63 -15 98 -105 157 -212 139 -1151 755
-1247 818 -60 39 -168 110 -240 157 -512 336 -515 338 -563 338 -40 0 -50 -5
-84 -40z"/>
<path d="M1932 3785 c-46 -39 -58 -93 -34 -148 18 -38 42 -56 258 -197 132
-85 356 -232 499 -325 143 -94 293 -193 333 -219 40 -26 88 -50 106 -53 45 -7
103 21 123 60 19 38 19 101 0 131 -13 19 -186 136 -792 531 -99 65 -220 145
-270 178 -73 49 -99 61 -140 65 -44 4 -55 1 -83 -23z"/>
<path d="M3330 2888 c-57 -39 -76 -103 -48 -163 10 -23 269 -204 357 -249 89
-46 181 11 181 113 0 57 -25 81 -214 205 -188 122 -219 133 -276 94z"/>
</g>
</svg>
